<svg xmlns="http://www.w3.org/2000/svg" viewBox="0 0 633.23 182"><defs><style>.cls-1{fill:#fff;}</style></defs><title>ppmarkwhite</title><g id="Layer_2" data-name="Layer 2"><g id="Layer_1-2" data-name="Layer 1"><path class="cls-1" d="M275.47,92.53l11.47,5.73c-5.19,7.77-15.78,14-30.15,14-20.65,0-34.07-10.91-34.07-29.2S236.14,53.9,257.34,53.9c13.82,0,24.41,6.36,29.44,14l-11.54,5.73c-3.93-6.13-9.89-8.87-18.06-8.87-13,0-21.66,6.28-21.66,18.37s8.63,18.37,21.66,18.37c8.17,0,14.21-2.67,18.29-9"/><polygon class="cls-1" points="414.14 99.37 414.14 110.5 363.63 110.5 363.63 55.71 375.62 55.71 375.62 99.37 414.14 99.37"/><polygon class="cls-1" points="476.63 99.37 476.63 110.5 419.27 110.5 419.27 55.71 475.77 55.71 475.77 65.98 432.11 65.98 432.11 77.11 468.07 77.11 468.07 87.39 432.11 87.39 432.11 99.37 476.63 99.37"/><path class="cls-1" d="M173.12,55.71H135.93l12,10.27h23.93c7,0,11.73,1.88,11.73,8.14s-4.69,8.13-11.73,8.13H135.93V110.5h12.84v-18h24.35c14,0,23.3-6.36,23.3-18.4,0-11.88-9.32-18.41-23.3-18.41"/><polygon class="cls-1" points="215.54 55.71 202.7 70.73 202.7 110.5 215.54 110.5 215.54 55.71"/><polygon class="cls-1" points="329.5 77.31 355.66 55.71 338.81 55.71 305.42 83.5 305.42 83.5 292.58 94.14 292.58 110.5 305.42 110.5 305.42 96.88 320.11 84.75 341.78 110.5 357.18 110.5 329.5 77.31"/><polygon class="cls-1" points="305.42 55.71 292.58 55.71 292.58 80.74 305.42 70.06 305.42 55.71"/><path class="cls-1" d="M582.44,64.2V77.86a9.23,9.23,0,0,1-6.05,8.33,9.16,9.16,0,0,1,6.6,8.48v17.58h-1.42V94.67c0-3.81-2.59-6.64-6.2-7.84H545.78v25.42h-1.42V55.72H573c5.18,0,9.42,3.82,9.42,8.48M581,78V64.2c0-3.67-3.46-7.27-7.93-7.27H545.78V85.56h29.59c3.3-1.35,5.58-4,5.58-7.56"/><path class="cls-1" d="M605.52,55.3h16.41c6.28,0,11.3,4.52,11.3,10.18v37.3c0,5.65-5,10.17-11.3,10.17H605.52c-6.28,0-11.31-4.52-11.31-10.17V65.48c0-5.66,5-10.18,11.31-10.18m0,56.38h16.41c5.49,0,9.89-4,9.89-8.9V65.48c0-5-4.4-8.91-9.89-8.91H605.52c-5.5,0-9.89,4-9.89,8.91v37.3c0,5,4.39,8.9,9.89,8.9"/><path class="cls-1" d="M523.32,55.72h-27.4L497.34,57h26c5.5,0,9.89,3.53,9.89,8.48V76.64c0,4.94-4.39,8.9-9.89,8.9h-27.4v26.71h1.42V86.81h26c6.28,0,11.31-4.52,11.31-10.17V65.48c0-5.66-5-9.76-11.31-9.76"/><path class="cls-1" d="M121.42,87.87v-.16c0-2,0-4.09.06-6.14v0l0-5.59V75.3l-.06-11.76A30.25,30.25,0,0,0,91,33.22l-8.84,0h-49L61.87,49.51l5.51,0,1.61,0c3.84,0,7.56,0,11.07,0,4,0,7.71,0,11.42.07a13.89,13.89,0,0,1,13.63,13.08c.15,3.63.09,7.41,0,11.08,0,1.72,0,3.5-.06,5.26v0c0,2.61,0,5.25,0,7.8v0c0,5.88.08,12,0,17.88-.08,3.8-1.82,7.11-5.31,10.12a71.85,71.85,0,0,1-6.54,4.76c-1.28.87-2.6,1.75-3.91,2.7a32.72,32.72,0,0,0-8,7.52h0l0,0c-.16.22-.31.45-.46.7v0a10.16,10.16,0,0,0-1.14,3.16,30.58,30.58,0,0,0-.41,5.69v21.16L95.45,182V138.76c0-.2,0-.41,0-.6a19.58,19.58,0,0,1,2.92-2.41l3.36-2.34c2.06-1.41,4.18-2.87,6.27-4.41,9.13-6.74,13.79-16.2,13.48-27.35-.12-4.54-.06-9.22,0-13.75Z"/><path class="cls-1" d="M34.18,16.26l1.6,0c3.85,0,7.57,0,11.08,0,4,0,7.71,0,11.42.06A13.94,13.94,0,0,1,71.78,28h16.3A30.19,30.19,0,0,0,57.82,0C55.2,0,52.39,0,49,0H0L28.67,16.31Z"/><path class="cls-1" d="M88.23,68.44c-.12-4.53-.07-9.21,0-13.75v-.06c-2.65,0-5.34,0-8.16,0-2.6,0-5.33,0-8.13,0,0,5.54.07,11.23-.05,16.79-.08,3.81-1.82,7.12-5.31,10.12A71.41,71.41,0,0,1,60,86.31c-1.28.86-2.6,1.75-3.92,2.69a33.26,33.26,0,0,0-8,7.52h0l0,0c-.16.22-.31.45-.46.7v0l0,0a9.82,9.82,0,0,0-1.13,3.16,30.49,30.49,0,0,0-.41,5.69v21.16L62.24,148.8V105.56c0-.2,0-.41,0-.6a20.35,20.35,0,0,1,2.93-2.42c1.11-.78,2.26-1.57,3.36-2.33,2-1.41,4.17-2.87,6.26-4.41,9.14-6.74,13.8-16.2,13.49-27.36"/></g></g></svg>