<svg xmlns="http://www.w3.org/2000/svg" viewBox="0 0 633.37 182.58"><defs><style>.cls-1{fill:#fff;}.cls-2{fill:#ccc;}</style></defs><title>svgUnderconstructionGrey</title><g id="Layer_2" data-name="Layer 2"><g id="Layer_1-2" data-name="Layer 1"><path class="cls-1" d="M275.61,92.53l11.46,5.73c-5.18,7.77-15.78,14-30.14,14-20.65,0-34.07-10.91-34.07-29.2S236.28,53.9,257.48,53.9c13.81,0,24.41,6.36,29.43,14l-11.53,5.73c-3.93-6.13-9.9-8.87-18.06-8.87-13,0-21.67,6.28-21.67,18.37s8.64,18.37,21.67,18.37c8.16,0,14.21-2.67,18.29-9"/><polygon class="cls-1" points="414.27 99.37 414.27 110.5 363.77 110.5 363.77 55.71 375.75 55.71 375.75 99.37 414.27 99.37"/><polygon class="cls-1" points="476.76 99.37 476.76 110.5 419.41 110.5 419.41 55.71 475.91 55.71 475.91 65.98 432.25 65.98 432.25 77.11 468.2 77.11 468.2 87.39 432.25 87.39 432.25 99.37 476.76 99.37"/><path class="cls-1" d="M173.26,55.71h-37.2l12,10.27H172c7,0,11.73,1.88,11.73,8.14S179,82.25,172,82.25H136.06V110.5H148.9v-18h24.36c14,0,23.3-6.36,23.3-18.4,0-11.88-9.32-18.41-23.3-18.41"/><polygon class="cls-1" points="215.67 55.71 202.83 70.73 202.83 110.5 215.67 110.5 215.67 55.71"/><polygon class="cls-1" points="329.63 77.31 355.8 55.71 338.94 55.71 305.56 83.5 305.56 83.5 292.72 94.14 292.72 110.5 305.56 110.5 305.56 96.88 320.24 84.75 341.91 110.5 357.32 110.5 329.63 77.31"/><polygon class="cls-1" points="305.56 55.71 292.72 55.71 292.72 80.74 305.56 70.06 305.56 55.71"/><path class="cls-1" d="M582.57,64.2V77.86a9.22,9.22,0,0,1-6,8.33,9.15,9.15,0,0,1,6.59,8.48v17.58h-1.41V94.67c0-3.81-2.59-6.64-6.2-7.84h-29.6v25.42H544.5V55.72h28.65c5.18,0,9.42,3.82,9.42,8.48M581.08,78V64.2c0-3.67-3.45-7.27-7.93-7.27H545.91V85.56h29.6c3.3-1.35,5.57-4,5.57-7.56"/><path class="cls-1" d="M605.65,55.3h16.41c6.28,0,11.31,4.52,11.31,10.18v37.3c0,5.65-5,10.17-11.31,10.17H605.65c-6.28,0-11.3-4.52-11.3-10.17V65.48c0-5.66,5-10.18,11.3-10.18m0,56.38h16.41c5.5,0,9.89-4,9.89-8.9V65.48c0-5-4.39-8.91-9.89-8.91H605.65c-5.49,0-9.89,4-9.89,8.91v37.3c0,5,4.4,8.9,9.89,8.9"/><path class="cls-1" d="M523.46,55.72h-27.4L497.47,57h26c5.49,0,9.89,3.53,9.89,8.48V76.64c0,4.94-4.4,8.9-9.89,8.9h-27.4v26.71h1.41V86.81h26c6.28,0,11.3-4.52,11.3-10.17V65.48c0-5.66-5-9.76-11.3-9.76"/><path class="cls-1" d="M121.42,87.87v-.16c0-2,0-4.09.06-6.14v0l0-5.59V75.3l-.06-11.76A30.25,30.25,0,0,0,91,33.22l-8.84,0h-49L61.87,49.51l5.51,0,1.61,0c3.84,0,7.56,0,11.07,0,4,0,7.71,0,11.42.07a13.89,13.89,0,0,1,13.63,13.08c.15,3.63.09,7.41,0,11.08,0,1.72,0,3.5-.06,5.26v0c0,2.61,0,5.25,0,7.8v0c0,5.88.08,12,0,17.88-.08,3.8-1.82,7.11-5.31,10.12a71.85,71.85,0,0,1-6.54,4.76c-1.28.87-2.6,1.75-3.91,2.7a32.72,32.72,0,0,0-8,7.52h0l0,0c-.16.22-.31.45-.46.7v0a10.16,10.16,0,0,0-1.14,3.16,30.58,30.58,0,0,0-.41,5.69v21.16L95.45,182V138.76c0-.2,0-.41,0-.6a19.58,19.58,0,0,1,2.92-2.41l3.36-2.34c2.06-1.41,4.18-2.87,6.27-4.41,9.13-6.74,13.79-16.2,13.48-27.35-.12-4.54-.06-9.22,0-13.75Z"/><path class="cls-1" d="M34.18,16.26l1.6,0c3.85,0,7.57,0,11.08,0,4,0,7.71,0,11.42.06A13.94,13.94,0,0,1,71.78,28h16.3A30.19,30.19,0,0,0,57.82,0C55.2,0,52.39,0,49,0H0L28.67,16.31Z"/><path class="cls-1" d="M88.23,68.44c-.12-4.53-.07-9.21,0-13.75v-.06c-2.65,0-5.34,0-8.16,0-2.6,0-5.33,0-8.13,0,0,5.54.07,11.23-.05,16.79-.08,3.81-1.82,7.12-5.31,10.12A71.41,71.41,0,0,1,60,86.31c-1.28.86-2.6,1.75-3.92,2.69a33.26,33.26,0,0,0-8,7.52h0l0,0c-.16.22-.31.45-.46.7v0l0,0a9.82,9.82,0,0,0-1.13,3.16,30.49,30.49,0,0,0-.41,5.69v21.16L62.24,148.8V105.56c0-.2,0-.41,0-.6a20.35,20.35,0,0,1,2.93-2.42c1.11-.78,2.26-1.57,3.36-2.33,2-1.41,4.17-2.87,6.26-4.41,9.14-6.74,13.8-16.2,13.49-27.36"/><path class="cls-2" d="M341.42,176.63V162.55c0-.29.11-.43.4-.43h2.47a.38.38,0,0,1,.43.43v14c0,2.24,1,3,2.91,3H350c1.89,0,2.94-.78,2.94-3v-14c0-.29.11-.43.4-.43h2.47a.38.38,0,0,1,.43.43v14.08c0,3.71-1.79,6-6,6h-2.88C343.19,182.58,341.42,180.34,341.42,176.63Z"/><path class="cls-2" d="M360.07,182V162.55c0-.29.12-.43.41-.43h4.27a.51.51,0,0,1,.52.32l6.15,15.76h.26V162.55c0-.29.12-.43.41-.43h2.47a.38.38,0,0,1,.43.43V182a.38.38,0,0,1-.43.43h-4.27a.49.49,0,0,1-.52-.32l-6.16-15.75h-.23V182a.38.38,0,0,1-.43.43h-2.47C360.19,182.43,360.07,182.29,360.07,182Z"/><path class="cls-2" d="M393.21,168.07v8.41c0,3.72-1.8,6-6,6h-8c-.29,0-.41-.14-.41-.43V162.55c0-.29.12-.43.41-.43h8C391.41,162.12,393.21,164.35,393.21,168.07Zm-3.3.06c0-2.21-1.05-3-2.94-3H382.1v14.33H387c1.89,0,2.94-.78,2.94-3Z"/><path class="cls-2" d="M397,182V162.55c0-.29.12-.43.41-.43h11.43a.38.38,0,0,1,.44.43v2.12a.39.39,0,0,1-.44.44h-8.53v5.69h7.84c.29,0,.4.14.4.43v2c0,.29-.11.44-.4.44h-7.84v5.74H409a.38.38,0,0,1,.43.44V182a.38.38,0,0,1-.43.43H397.42C397.13,182.43,397,182.29,397,182Z"/><path class="cls-2" d="M424.41,175.12c1.33.67,2.06,1.92,2.06,4V182a.38.38,0,0,1-.44.43h-2.46c-.29,0-.41-.14-.41-.43v-2.76c0-2.18-.49-3.1-2.93-3.1h-4.56V182a.38.38,0,0,1-.43.43h-2.47c-.29,0-.41-.14-.41-.43V162.55c0-.29.12-.43.41-.43h7.72c4.18,0,6,2.2,6,5.92v2.18C426.47,172.45,425.83,174.13,424.41,175.12Zm-4.18-2c1.91,0,2.93-.76,2.93-3v-2c0-2.24-1-3-2.93-3h-4.56v8Z"/><path class="cls-2" d="M435.49,176.63v-8.71c0-3.71,1.77-5.95,6-5.95h2.73c4.26,0,6,2.15,6,5.92V168a.4.4,0,0,1-.41.4H447.3a.38.38,0,0,1-.43-.4c0-2.38-1.13-3.08-2.93-3.08H441.7c-1.88,0-2.9.82-2.9,3v8.59c0,2.24,1,3,2.9,3h2.24c1.8,0,2.93-.7,2.93-2.93a.4.4,0,0,1,.43-.44h2.47a.41.41,0,0,1,.41.44v.14c0,3.66-1.72,5.78-6,5.78h-2.73C437.26,182.58,435.49,180.34,435.49,176.63Z"/><path class="cls-2" d="M453.71,176.63v-8.71c0-3.71,1.77-5.95,6-5.95h2.88c4.2,0,6,2.24,6,5.95v8.71c0,3.71-1.8,6-6,6h-2.88C455.48,182.58,453.71,180.34,453.71,176.63Zm8.62,3c1.89,0,2.93-.78,2.93-3V168c0-2.2-1-3-2.93-3h-2.41c-1.88,0-2.9.82-2.9,3v8.59c0,2.24,1,3,2.9,3Z"/><path class="cls-2" d="M472.37,182V162.55c0-.29.12-.43.41-.43h4.27a.51.51,0,0,1,.52.32l6.15,15.76H484V162.55c0-.29.12-.43.41-.43h2.46c.3,0,.44.14.44.43V182c0,.29-.14.43-.44.43h-4.26a.49.49,0,0,1-.52-.32l-6.16-15.75h-.23V182a.38.38,0,0,1-.43.43h-2.47C472.49,182.43,472.37,182.29,472.37,182Z"/><path class="cls-2" d="M490.91,177.3c0-.38.18-.58.53-.58h2.17a.57.57,0,0,1,.61.58c.09,1.74,1.25,2.29,3,2.29H499c1.77,0,3-.61,3-2.87s-1.16-2.79-3.25-3.11l-1.42-.2c-3.63-.55-6.24-1.45-6.24-6,0-3.68,2.09-5.4,6-5.4H499c3.8,0,5.84,1.89,5.84,5.34,0,.38-.18.58-.53.58h-2.17a.57.57,0,0,1-.61-.58c-.09-1.71-1-2.35-2.79-2.35h-1.45c-1.8,0-2.87.61-2.87,2.56s.75,2.78,2.93,3.07l1.42.21c3.63.52,6.56,1.3,6.56,5.92,0,4-1.95,5.86-5.95,5.86h-2.5C492.86,182.58,490.91,180.75,490.91,177.3Z"/><path class="cls-2" d="M520.37,162.55v2.12a.39.39,0,0,1-.44.44h-4.46V182a.38.38,0,0,1-.44.43h-2.44a.38.38,0,0,1-.43-.43V165.11h-4.5c-.29,0-.41-.15-.41-.44v-2.12c0-.29.12-.43.41-.43h12.27A.38.38,0,0,1,520.37,162.55Z"/><path class="cls-2" d="M535.63,175.12c1.34.67,2.06,1.92,2.06,4V182a.38.38,0,0,1-.43.43h-2.47c-.29,0-.4-.14-.4-.43v-2.76c0-2.18-.5-3.1-2.94-3.1H526.9V182a.38.38,0,0,1-.44.43H524c-.29,0-.41-.14-.41-.43V162.55c0-.29.12-.43.41-.43h7.72c4.17,0,6,2.2,6,5.92v2.18C537.69,172.45,537.06,174.13,535.63,175.12Zm-4.18-2c1.92,0,2.94-.76,2.94-3v-2c0-2.24-1-3-2.94-3H526.9v8Z"/><path class="cls-2" d="M540.91,176.63V162.55c0-.29.12-.43.41-.43h2.47a.38.38,0,0,1,.43.43v14c0,2.24,1,3,2.9,3h2.41c1.89,0,2.93-.78,2.93-3v-14c0-.29.12-.43.41-.43h2.47a.38.38,0,0,1,.43.43v14.08c0,3.71-1.8,6-6,6h-2.87C542.68,182.58,540.91,180.34,540.91,176.63Z"/><path class="cls-2" d="M559.57,176.63v-8.71c0-3.71,1.77-5.95,6-5.95h2.73c4.26,0,6,2.15,6,5.92V168a.4.4,0,0,1-.41.4h-2.47a.38.38,0,0,1-.43-.4c0-2.38-1.13-3.08-2.93-3.08h-2.24c-1.88,0-2.9.82-2.9,3v8.59c0,2.24,1,3,2.9,3H568c1.8,0,2.93-.7,2.93-2.93a.4.4,0,0,1,.43-.44h2.47a.41.41,0,0,1,.41.44v.14c0,3.66-1.72,5.78-6,5.78h-2.73C561.34,182.58,559.57,180.34,559.57,176.63Z"/><path class="cls-2" d="M589.46,162.55v2.12a.38.38,0,0,1-.43.44h-4.47V182a.38.38,0,0,1-.44.43h-2.44a.38.38,0,0,1-.43-.43V165.11h-4.5c-.29,0-.41-.15-.41-.44v-2.12c0-.29.12-.43.41-.43H589A.38.38,0,0,1,589.46,162.55Z"/><path class="cls-2" d="M592.68,182V162.55c0-.29.12-.43.41-.43h2.46a.38.38,0,0,1,.44.43V182a.38.38,0,0,1-.44.43h-2.46C592.8,182.43,592.68,182.29,592.68,182Z"/><path class="cls-2" d="M599.79,176.63v-8.71c0-3.71,1.77-5.95,6-5.95h2.87c4.21,0,6,2.24,6,5.95v8.71c0,3.71-1.8,6-6,6h-2.87C601.56,182.58,599.79,180.34,599.79,176.63Zm8.62,3c1.89,0,2.93-.78,2.93-3V168c0-2.2-1-3-2.93-3H606c-1.89,0-2.9.82-2.9,3v8.59c0,2.24,1,3,2.9,3Z"/><path class="cls-2" d="M618.45,182V162.55c0-.29.11-.43.41-.43h4.26a.5.5,0,0,1,.52.32l6.16,15.76h.26V162.55c0-.29.11-.43.4-.43h2.47a.38.38,0,0,1,.44.43V182a.38.38,0,0,1-.44.43h-4.27a.5.5,0,0,1-.52-.32L622,166.36h-.23V182a.38.38,0,0,1-.44.43h-2.46C618.56,182.43,618.45,182.29,618.45,182Z"/></g></g></svg>